# xmcd
#
# Track frame offsets:
#	150
#	11811
#	25439
#	38839
#	51180
#	64159
#	74981
#	86306
#	97983
#	118590
#	138040
#	151380
#	166475
#	210654
#	244240
#
# Disc length: 3635 seconds
#
# Revision: 0
# Processed by: cddbd v1.4b42PL1 Copyright (c) Steve Scherf et al.
# Submitted via: EasyCDDAExtractor 4.5.0.2
#
DISCID=d00e310f
DTITLE=Various Artist - The History Of Soul
DYEAR=1900
DGENRE=Soul
TTITLE0=Sittin´On The Dock Of The Bay (Otis Redding)
TTITLE1=Tell It Like It Is (Aaron Neville)
TTITLE2=Stand By Me (Ben E. King)
TTITLE3=Walk On By (Dionne Warkick)
TTITLE4=Something You Got (Wilson Picket)
TTITLE5=Respect (Aretha Franklin)
TTITLE6=Soul Man (Sam and Dave)
TTITLE7=Under The Boardwalk (The Drifters)
TTITLE8=Midnight Train To Georgia (Gladys Knight and The Pips)
TTITLE9=Change The World (Gladys Norton)
TTITLE10=Fever (Billy Jo Spears)
TTITLE11=Rock Your Baby (George Mc Rae)
TTITLE12=Thinking  Of You (Sister Sledge)
TTITLE13=Prisioner Of Love (James Brown)
TTITLE14=Sexual Healing (Marvin Gaye)
EXTD=
EXTT0=
EXTT1=
EXTT2=
EXTT3=
EXTT4=
EXTT5=
EXTT6=
EXTT7=
EXTT8=
EXTT9=
EXTT10=
EXTT11=
EXTT12=
EXTT13=
EXTT14=
PLAYORDER=
